<svg viewBox="0 0 116.89999999999999 34" xmlns="http://www.w3.org/2000/svg" width="2500" height="727"><path d="M77.6 31h15.9v2.7H77.6z" fill="#ff9662"/><path d="M108 15.4l-5.2 7.6-5.2-7.6H94l7.3 10.4v7.9h3.2v-7.9l7.3-10.4zm-95.1 8.8l-.3-.2.2-.2c.9-.9 1.3-2 1.3-3.3 0-2.8-2.6-5.1-5.7-5.1H0v18.2h9c3.3 0 6-2.4 6-5.4 0-1.5-.8-3-2.1-4zm-9.7-6.1h5.3c1.5 0 2.7 1.1 2.7 2.4s-1.2 2.4-2.7 2.4H3.2zM9 31H3.2v-5.4H9c1.7 0 3 1.2 3 2.7S10.6 31 9 31zm58.7-3.5l-5.2-12.2H59l8 18.3h1.5l8-18.3H73zM27.6 15c-5.2 0-9.4 4.2-9.4 9.5 0 5.2 4.2 9.5 9.4 9.5s9.4-4.2 9.4-9.5c0-5.2-4.2-9.5-9.4-9.5zm0 15.9c-3.5 0-6.3-2.8-6.3-6.4 0-3.5 2.8-6.4 6.3-6.4s6.3 2.8 6.3 6.4c0 3.5-2.8 6.4-6.3 6.4zm25-3.8L42.3 15.4h-1.6v18.3h3.2V21.9l10.3 11.8h1.6V15.4h-3.1v11.7zM85.5 15c-3.5 0-6.3 2.8-6.3 6.4 0 3.5 2.8 6.4 6.3 6.4s6.3-2.8 6.3-6.4c0-3.5-2.8-6.4-6.3-6.4zm0 10.1c-2 0-3.6-1.6-3.6-3.7 0-2 1.6-3.7 3.6-3.7s3.6 1.6 3.6 3.7c0 2-1.6 3.7-3.6 3.7zm-68.4-22v6.2h-1.7V.2h1.9l2.8 5.1L22.9.2h1.9v9.1h-1.7V3.1l-2.4 4.4h-1.2zM89.2.2v1.6h2.7v7.6h1.7V1.7h2.7V.2zm-9.8 0v1.6h2.7v7.6h1.7V1.7h2.7V.2zM62.6.2h1.7v9.1h-1.7zM41.9 5.6h1.4l2.5 3.7h1.9l-2.6-3.7c1.4-.2 2.6-1.3 2.6-2.7 0-1.5-1.4-2.7-3-2.7h-4.5v9.1h1.7zm0-4h2.8c.8 0 1.4.6 1.4 1.3s-.6 1.3-1.4 1.3h-2.8zm-9.3 1.6l1.3 2.9h-2.6zm-.4-3L28 9.3h1.8l.8-1.7h4l.8 1.7h1.8L33 .2zm23.5 0h-4.5v9.1H53V5.6h1.4l2.5 3.7h1.9l-2.6-3.7c1.4-.2 2.6-1.3 2.6-2.7 0-1.5-1.4-2.7-3.1-2.7zm1.5 2.7c0 .7-.6 1.3-1.4 1.3H53V1.6h2.8c.7 0 1.4.6 1.4 1.3zM72.4 0c-2.6 0-4.7 2.1-4.7 4.7s2.1 4.7 4.7 4.7 4.7-2.1 4.7-4.7S75 0 72.4 0zm0 7.8c-1.7 0-3-1.4-3-3s1.3-3 3-3 3 1.4 3 3-1.3 3-3 3zm41.1 7.8h-.7v-.3h1.7v.3h-.7v2h-.3zm1.6 2h-.3v-2.3h.4l.6 1.8.1.2v-.2l.6-1.8h.4v2.3h-.3v-2c0 .1 0 .1-.1.2l-.6 1.8h-.3l-.6-1.8v-.2 2z" fill="#1c1c1c"/></svg>